PathFileType        4      (X/Y/Z)      C:\Users\mrr\Desktop\moco_PFJCF\transformed_exp_static.trc         
DataRate	CameraRate	NumFrames	NumMarkers	Units	OrigDataRate	OrigDataStartFrame	OrigNumFrames
200.0	200.0	4	64	mm	200.0	164	652
Frame#	Time	R.Shoulder			L.Shoulder			R.Clavicle			L.Clavicle			R.Biceps			R.Elbow			R.MElbow			R.Forearm			R.Wrist			L.Biceps			L.Elbow			L.MElbow			L.Forearm			L.Wrist			R.ASIS			L.ASIS			R.PSIS			S2			L.PSIS			R.TH1			R.TH2			R.TH3			R.Knee			R.MKnee			R.SH1			R.SH2			R.SH3			R.SH4			R.Ankle			R.MAnkle			R.Heel			R.MT5			R.Toe			L.TH1			L.TH2			L.TH3			L.TH4			L.Knee			L.MKnee			L.SH1			L.SH2			L.SH3			L.Ankle			L.MAnkle			L.Heel			L.MT5			L.Toe			R_HJC			L_HJC			L.HeelGround			L.ToeGround			L.MT5Ground			L.AnkleJoint			L.AnkleJointGround			L.KneeJoint			R.HeelGround			R.ToeGround			R.MT5Ground			R.AnkleJoint			R.AnkleJointGround			R.KneeJoint			MidASIS			MidPSIS			MidClavicle			
		X1	Y1	Z1	X2	Y2	Z2	X3	Y3	Z3	X4	Y4	Z4	X5	Y5	Z5	X6	Y6	Z6	X7	Y7	Z7	X8	Y8	Z8	X9	Y9	Z9	X10	Y10	Z10	X11	Y11	Z11	X12	Y12	Z12	X13	Y13	Z13	X14	Y14	Z14	X15	Y15	Z15	X16	Y16	Z16	X17	Y17	Z17	X18	Y18	Z18	X19	Y19	Z19	X20	Y20	Z20	X21	Y21	Z21	X22	Y22	Z22	X23	Y23	Z23	X24	Y24	Z24	X25	Y25	Z25	X26	Y26	Z26	X27	Y27	Z27	X28	Y28	Z28	X29	Y29	Z29	X30	Y30	Z30	X31	Y31	Z31	X32	Y32	Z32	X33	Y33	Z33	X34	Y34	Z34	X35	Y35	Z35	X36	Y36	Z36	X37	Y37	Z37	X38	Y38	Z38	X39	Y39	Z39	X40	Y40	Z40	X41	Y41	Z41	X42	Y42	Z42	X43	Y43	Z43	X44	Y44	Z44	X45	Y45	Z45	X46	Y46	Z46	X47	Y47	Z47	X48	Y48	Z48	X49	Y49	Z49	X50	Y50	Z50	X51	Y51	Z51	X52	Y52	Z52	X53	Y53	Z53	X54	Y54	Z54	X55	Y55	Z55	X56	Y56	Z56	X57	Y57	Z57	X58	Y58	Z58	X59	Y59	Z59	X60	Y60	Z60	X61	Y61	Z61	X62	Y62	Z62	X63	Y63	Z63	X64	Y64	Z64	
164	0.815	-257.479	1370.157	-411.998	-258.16499999999996	1387.317	-740.298	-210.42099999999996	1345.089	-557.207	-207.49699999999999	1347.705	-596.752	-192.53799999999998	1191.827	-350.898	-69.52199999999999	1132.635	-302.829	-84.06299999999997	1103.195	-360.527	39.24200000000002	1131.496	-365.921	162.23800000000003	1146.824	-329.695	-155.58399999999995	1240.492	-809.938	-87.35699999999994	1133.411	-840.239	-98.63099999999996	1110.244	-776.936	5.025000000000051	1102.54	-833.422	142.35900000000007	1162.432	-821.734	-131.79299999999998	959.492	-440.214	-138.86999999999995	958.197	-706.453	-310.45599999999996	954.143	-521.896	-314.39699999999993	945.319	-564.291	-318.13999999999993	961.443	-612.261	-183.05199999999996	732.992	-369.669	-274.234	722.405	-421.345	-279.117	594.019	-412.135	-240.79799999999997	483.62	-379.976	-197.71899999999997	463.058	-493.17	-229.01399999999998	406.031	-358.224	-248.80299999999997	302.045	-318.423	-307.04	407.096	-384.667	-322.396	290.216	-356.811	-270.721	103.182	-319.664	-249.46099999999998	104.593	-396.704	-328.997	58.71	-363.026	-163.95699999999997	44.717	-276.699	-111.84399999999998	67.782	-335.579	-172.07799999999995	780.808	-759.894	-176.41399999999993	648.035	-748.729	-277.29999999999995	795.482	-750.713	-290.80499999999995	661.011	-725.004	-251.96899999999994	496.74	-742.397	-239.02799999999996	474.291	-617.743	-221.51299999999995	402.151	-738.072	-314.37899999999996	417.376	-744.663	-323.59299999999996	302.203	-766.775	-282.7559999999999	104.743	-771.15	-268.5489999999999	101.083	-692.059	-346.53599999999994	54.72	-722.752	-179.54699999999994	45.698	-805.346	-126.12999999999995	66.134	-749.98	-179.65299999999996	855.382	-471.138	-196.04599999999996	866.05	-671.035	-346.53599999999994	0.0	-722.752	-126.12999999999995	0.0	-749.98	-179.54699999999994	0.0	-805.346	-275.6524999999999	102.913	-731.6044999999999	-275.6524999999999	0.0	-731.6044999999999	-245.49849999999995	485.5155	-680.07	-328.997	0.0	-363.026	-111.84399999999998	0.0	-335.579	-163.95699999999997	0.0	-276.699	-260.091	103.8875	-358.18399999999997	-260.091	0.0	-358.18399999999997	-219.25849999999997	473.339	-436.573	-135.33149999999998	958.8444999999999	-573.3335	-314.29799999999994	957.793	-567.0785	-208.95899999999997	1346.397	-576.9794999999999	
165	0.82	-257.5	1370.135	-411.986	-258.18899999999996	1387.252	-740.34	-210.49899999999997	1345.3	-557.294	-207.53499999999997	1347.748	-597.199	-192.62499999999997	1192.013	-350.966	-69.88299999999998	1133.116	-302.736	-84.07899999999997	1103.112	-360.562	39.20800000000002	1131.231	-366.019	162.23400000000004	1146.713	-329.876	-155.64199999999994	1240.329	-810.022	-87.38999999999994	1133.111	-840.271	-98.16699999999996	1110.992	-776.522	4.94600000000005	1102.309	-833.643	142.34100000000007	1162.242	-821.941	-131.88399999999996	959.509	-440.19	-138.92799999999994	957.997	-706.546	-310.3709999999999	953.797	-522.02	-314.4049999999999	945.327	-564.269	-318.14699999999993	961.152	-612.185	-183.13099999999997	732.929	-369.636	-274.243	722.336	-421.302	-279.149	593.861	-412.266	-240.84299999999996	483.842	-379.991	-197.75999999999996	462.958	-493.204	-229.02799999999996	406.167	-358.197	-248.82199999999997	302.024	-318.412	-306.985	407.036	-384.894	-322.511	290.209	-357.184	-270.778	103.411	-319.693	-249.24699999999999	104.759	-397.107	-329.063	58.533	-363.204	-163.87399999999997	45.069	-276.783	-111.86099999999999	67.827	-335.673	-172.09899999999993	780.537	-759.938	-176.44399999999993	647.829	-748.821	-277.31299999999993	795.272	-750.859	-290.7819999999999	660.882	-725.266	-252.00299999999993	496.455	-742.183	-239.08299999999997	474.23	-617.207	-221.53399999999993	401.955	-738.105	-314.3519999999999	417.114	-744.747	-323.57199999999995	301.994	-766.855	-282.7559999999999	104.742	-771.149	-268.62399999999997	101.036	-692.043	-346.5319999999999	54.513	-722.865	-179.62099999999995	45.446	-805.356	-126.23199999999996	66.058	-750.253	-179.59199999999998	855.327	-471.096	-196.00699999999998	865.853	-670.999	-346.5319999999999	0.0	-722.865	-126.23199999999996	0.0	-750.253	-179.62099999999995	0.0	-805.356	-275.68999999999994	102.88900000000001	-731.596	-275.68999999999994	0.0	-731.596	-245.54299999999998	485.3425	-679.6949999999999	-329.063	0.0	-363.204	-111.86099999999999	0.0	-335.673	-163.87399999999997	0.0	-276.783	-260.01250000000005	104.08500000000001	-358.4	-260.01250000000005	0.0	-358.4	-219.30149999999995	473.4	-436.59749999999997	-135.40599999999998	958.7529999999999	-573.368	-314.25899999999996	957.4745	-567.1025	-209.01699999999997	1346.524	-577.2465	
166	0.825	-257.531	1370.152	-411.966	-258.1979999999999	1387.217	-740.301	-210.47699999999998	1345.295	-557.304	-207.53499999999997	1347.65	-597.507	-192.65899999999996	1192.132	-350.941	-69.60999999999999	1133.725	-302.668	-84.18099999999997	1103.098	-360.796	39.13400000000002	1130.926	-366.106	162.21000000000004	1146.732	-330.22	-155.69499999999994	1240.033	-810.144	-87.39999999999995	1132.777	-840.299	-98.26999999999995	1111.04	-776.574	4.915000000000051	1101.973	-833.682	142.38200000000006	1162.274	-822.237	-131.88899999999998	959.492	-440.172	-138.98499999999996	957.728	-706.628	-310.3399999999999	953.383	-522.152	-314.95099999999996	945.963	-564.019	-318.07099999999997	960.819	-612.316	-183.11899999999997	732.919	-369.635	-274.171	722.507	-420.763	-279.078	593.656	-412.282	-240.75299999999996	483.948	-379.914	-197.80599999999998	462.792	-493.246	-229.09399999999997	406.589	-358.192	-248.84599999999998	301.978	-318.386	-307.001	406.935	-385.086	-322.532	290.143	-357.487	-271.045	104.236	-319.908	-249.13799999999998	104.793	-397.132	-329.032	58.407	-363.513	-163.86599999999999	45.229	-276.818	-111.76199999999999	67.64	-336.024	-172.12899999999993	780.221	-759.943	-176.49499999999995	647.667	-748.835	-277.24299999999994	795.017	-750.879	-290.77599999999995	660.576	-725.099	-252.01199999999994	496.1	-742.22	-239.15299999999996	474.314	-617.168	-221.54199999999994	401.686	-738.203	-314.3399999999999	416.834	-744.835	-323.54799999999994	301.687	-766.941	-282.7559999999999	104.739	-771.148	-268.5779999999999	100.993	-692.224	-346.5319999999999	54.247	-723.009	-179.63899999999995	45.188	-805.466	-126.71099999999996	63.622	-748.363	-179.75699999999998	855.291	-471.025	-196.18199999999996	865.646	-670.936	-346.5319999999999	0.0	-723.009	-126.71099999999996	0.0	-748.363	-179.63899999999995	0.0	-805.466	-275.6669999999999	102.866	-731.686	-275.6669999999999	0.0	-731.686	-245.58249999999995	485.207	-679.694	-329.032	0.0	-363.513	-111.76199999999999	0.0	-336.024	-163.86599999999999	0.0	-276.818	-260.0915	104.5145	-358.52	-260.0915	0.0	-358.52	-219.27949999999996	473.37	-436.58	-135.43699999999998	958.6099999999999	-573.4000000000001	-314.2055	957.101	-567.234	-209.00599999999997	1346.4725	-577.4055	
167	0.83	-257.601	1370.365	-412.103	-258.21999999999997	1387.125	-740.328	-210.63499999999996	1345.336	-557.436	-207.58299999999997	1347.565	-597.893	-192.72899999999998	1192.231	-350.98	-69.62299999999999	1133.74	-302.651	-84.17899999999997	1103.031	-360.954	39.04400000000002	1130.569	-366.231	162.22600000000003	1146.698	-330.506	-155.79299999999995	1239.832	-810.539	-87.41899999999994	1132.384	-840.325	-99.09699999999995	1110.526	-777.339	4.878000000000051	1101.575	-833.693	142.29600000000005	1162.138	-822.513	-131.88899999999998	959.516	-440.191	-139.04499999999993	957.476	-706.733	-310.26499999999993	953.005	-522.279	-314.9549999999999	945.966	-564.006	-317.91999999999996	960.385	-612.291	-183.14099999999996	733.002	-369.609	-274.146	722.508	-420.768	-279.143	593.452	-412.518	-240.92999999999998	484.188	-380.164	-197.85699999999997	462.605	-493.295	-229.13299999999998	406.743	-358.251	-248.83599999999998	302.045	-318.356	-307.038	406.769	-385.393	-322.526	289.931	-357.777	-271.025	104.359	-319.926	-249.15599999999998	104.55	-397.173	-329.011	58.344	-363.929	-163.87299999999996	45.235	-276.812	-111.77399999999999	67.592	-336.131	-172.15899999999993	779.852	-759.992	-176.66199999999995	647.403	-749.05	-277.22799999999995	794.719	-750.985	-290.73999999999995	660.247	-725.24	-252.01399999999995	495.717	-742.268	-239.18299999999996	474.335	-617.14	-221.58899999999994	401.367	-738.302	-314.31399999999996	416.528	-744.964	-323.49699999999996	301.369	-767.058	-282.75699999999995	104.729	-771.142	-268.62399999999997	101.004	-692.215	-346.50399999999996	53.922	-723.219	-179.67499999999995	44.879	-805.61	-126.69999999999996	63.353	-748.526	-179.62299999999996	855.236	-470.978	-196.08499999999998	865.38	-670.896	-346.50399999999996	0.0	-723.219	-126.69999999999996	0.0	-748.526	-179.67499999999995	0.0	-805.61	-275.6905	102.8665	-731.6785	-275.6905	0.0	-731.6785	-245.59849999999997	485.02599999999995	-679.704	-329.011	0.0	-363.929	-111.77399999999999	0.0	-336.131	-163.87299999999996	0.0	-276.812	-260.0905	104.4545	-358.54949999999997	-260.0905	0.0	-358.54949999999997	-219.3935	473.3965	-436.72950000000003	-135.46699999999996	958.496	-573.462	-314.0924999999999	956.6949999999999	-567.2850000000001	-209.10899999999995	1346.4505	-577.6645000000001	
